<?xml version="1.0" standalone="no"?>
<!DOCTYPE svg PUBLIC "-//W3C//DTD SVG 20010904//EN"
 "http://www.w3.org/TR/2001/REC-SVG-20010904/DTD/svg10.dtd">
<svg version="1.0" xmlns="http://www.w3.org/2000/svg"
 width="512.000000pt" height="512.000000pt" viewBox="0 0 512.000000 512.000000"
 preserveAspectRatio="xMidYMid meet">
<metadata>
Created by potrace 1.14, written by Peter Selinger 2001-2017
</metadata>
<g transform="translate(0.000000,512.000000) scale(0.100000,-0.100000)"
fill="#000000" stroke="none">
<path d="M0 2560 l0 -2560 2560 0 2560 0 0 2560 0 2560 -2560 0 -2560 0 0
-2560z m1729 775 c89 -18 172 -52 245 -99 77 -49 146 -114 146 -138 0 -28
-128 -158 -155 -158 -12 0 -45 20 -73 44 -57 49 -136 90 -203 105 -66 15 -183
13 -253 -5 -165 -42 -312 -188 -361 -358 -24 -82 -17 -249 14 -325 55 -136
176 -251 318 -303 85 -32 244 -31 328 2 65 25 109 51 169 99 21 17 48 31 58
31 22 0 144 -113 154 -142 18 -58 -158 -184 -336 -239 -108 -34 -311 -34 -420
-1 -331 104 -549 392 -551 728 -1 115 11 190 47 286 66 175 236 354 410 428
131 57 321 75 463 45z m1946 -20 c138 -36 280 -150 343 -275 58 -117 62 -153
62 -688 0 -314 -4 -490 -10 -503 -10 -17 -22 -19 -114 -19 -72 0 -107 4 -114
13 -7 9 -12 176 -14 512 -3 485 -4 501 -24 545 -26 55 -81 113 -137 143 -37
19 -57 22 -157 22 -99 0 -121 -3 -155 -22 -54 -29 -109 -88 -134 -143 -20 -43
-21 -64 -21 -542 0 -587 11 -538 -120 -538 -43 0 -90 5 -103 11 l-25 11 -7
674 c-4 371 -5 691 -2 711 4 20 12 40 19 45 7 4 55 8 107 8 72 0 99 -4 112
-16 16 -14 21 -13 68 11 28 14 75 32 104 40 71 19 248 19 322 0z"/>
</g>
</svg>
